<?xml version="1.0" standalone="no"?><!DOCTYPE svg PUBLIC "-//W3C//DTD SVG 1.1//EN" "http://www.w3.org/Graphics/SVG/1.1/DTD/svg11.dtd"><svg t="1519971806215" class="icon" style="" viewBox="0 0 1024 1024" version="1.1" xmlns="http://www.w3.org/2000/svg" p-id="1065" xmlns:xlink="http://www.w3.org/1999/xlink" width="32" height="32"><defs><style type="text/css"></style></defs><path d="M645.067034 497.099034l-194.206896-123.586206a17.743448 17.743448 0 0 0-17.990621-0.582621A17.690483 17.690483 0 0 0 423.724138 388.413793v247.172414a17.672828 17.672828 0 0 0 27.136 14.900965l194.206896-123.586206a17.690483 17.690483 0 0 0 0-29.801932zM459.034483 603.436138V420.563862L602.694621 512 459.034483 603.436138z" fill="#555555" p-id="1066"></path><path d="M1006.344828 105.931034H17.655172a17.655172 17.655172 0 0 0-17.655172 17.655173v776.827586a17.655172 17.655172 0 0 0 17.655172 17.655173h988.689656a17.655172 17.655172 0 0 0 17.655172-17.655173V123.586207a17.655172 17.655172 0 0 0-17.655172-17.655173zM176.551724 494.344828H35.310345v-158.896552h141.241379v158.896552z m-141.241379 35.310344h141.241379v158.896552H35.310345v-158.896552z m176.551724 176.551725V141.241379h600.275862v741.517242H211.862069V706.206897z m776.827586-211.862069h-141.241379v-158.896552h141.241379v158.896552z m-141.241379 35.310344h141.241379v158.896552h-141.241379v-158.896552z m141.241379-388.413793v158.896552h-141.241379V141.241379h141.241379zM35.310345 141.241379h141.241379v158.896552H35.310345V141.241379z m0 741.517242v-158.896552h141.241379v158.896552H35.310345z m953.37931 0h-141.241379v-158.896552h141.241379v158.896552z" fill="#555555" p-id="1067"></path></svg>