<svg version="1.1" id="图层_1" xmlns="http://www.w3.org/2000/svg" xmlns:xlink="http://www.w3.org/1999/xlink" x="0px" y="0px" viewBox="0 0 30 27" style="enable-background:new 0 0 30 27;" xml:space="preserve">
<desc>Created with Sketch.</desc>
<g id="Page-1">
  <g id="Artboard-5">
    <path id="Combined-Shape" d="M8.718,9.465C9.84,8.137,11.355,7.268,13.003,7v2.713
      c-1.115,0.419-1.891,1.034-2.319,1.845c-0.438,0.822-0.654,1.827-0.654,3.014v0.2h2.973L13,21H7.002l0.003-6.38
      C6.937,12.724,7.551,10.88,8.718,9.465z M18.718,9.465C19.84,8.137,21.355,7.268,23.003,7v2.713
      c-1.115,0.419-1.891,1.034-2.319,1.845c-0.438,0.822-0.654,1.827-0.654,3.014v0.2h2.973L23,21h-5.998l0.003-6.38
      C16.937,12.724,17.551,10.88,18.718,9.465z"></path>
  </g>
</g>
</svg>
