<svg version="1.1" id="图层_1" xmlns="http://www.w3.org/2000/svg" xmlns:xlink="http://www.w3.org/1999/xlink" x="0px" y="0px" viewBox="0 0 17 17" style="enable-background:new 0 0 17 17;" xml:space="preserve">
<title>超链接 1x</title>
<desc>Created with Sketch.</desc>
<g id="Page-1">
  <g id="超链接-1x">
    <path id="Combined-Shape" d="M6.083,9.762l1.21,1.21c-0.071,0.006-0.143,0.009-0.215,0.009H4.641
      C3.182,10.981,2,9.799,2,8.341S3.182,5.7,4.641,5.7h2.438c1.458,0,2.641,1.182,2.641,2.641c0,0.31-0.053,0.608-0.152,0.884
      l-1.08-1.08c-0.096-0.692-0.69-1.226-1.408-1.226H4.641c-0.785,0-1.422,0.637-1.422,1.422s0.637,1.422,1.422,1.422H6.083
      L6.083,9.762z M10.917,6.919l-1.21-1.21C9.778,5.703,9.85,5.7,9.922,5.7h2.438C13.818,5.7,15,6.882,15,8.341
      s-1.182,2.641-2.641,2.641H9.922c-1.458,0-2.641-1.182-2.641-2.641c0-0.31,0.053-0.608,0.152-0.884l1.08,1.08
      c0.096,0.692,0.69,1.226,1.408,1.226h2.438c0.785,0,1.422-0.637,1.422-1.422s-0.637-1.422-1.422-1.422H10.917L10.917,6.919z"></path>
  </g>
</g>
</svg>
